<svg width="26" height="26" viewBox="0 0 26 26" fill="none" xmlns="http://www.w3.org/2000/svg">
<path d="M15.1667 3.25V7.58333C15.1667 7.87065 15.2808 8.1462 15.484 8.34937C15.6872 8.55253 15.9627 8.66667 16.25 8.66667H20.5834" stroke="#EC2F2F" stroke-width="2" stroke-linecap="round" stroke-linejoin="round"/>
<path d="M18.4167 22.75H7.58337C7.00873 22.75 6.45763 22.5217 6.0513 22.1154C5.64497 21.7091 5.4167 21.158 5.4167 20.5833V5.41667C5.4167 4.84203 5.64497 4.29093 6.0513 3.8846C6.45763 3.47827 7.00873 3.25 7.58337 3.25H15.1667L20.5834 8.66667V20.5833C20.5834 21.158 20.3551 21.7091 19.9488 22.1154C19.5424 22.5217 18.9913 22.75 18.4167 22.75Z" stroke="#EC2F2F" stroke-width="2" stroke-linecap="round" stroke-linejoin="round"/>
<path d="M13 18.4167H13.0081" stroke="#EC2F2F" stroke-width="2" stroke-linecap="round" stroke-linejoin="round"/>
<path d="M13 11.9167V15.1667" stroke="#EC2F2F" stroke-width="2" stroke-linecap="round" stroke-linejoin="round"/>
</svg>
