<svg width="26" height="26" viewBox="0 0 26 26" fill="none" xmlns="http://www.w3.org/2000/svg">
<path d="M19.9333 6.06667L19.175 6.825M3.25 13H4.33333H3.25ZM13 3.25V4.33333V3.25ZM21.6667 13H22.75H21.6667ZM6.06667 6.06667L6.825 6.825L6.06667 6.06667Z" stroke="#219653" stroke-width="2" stroke-linecap="round" stroke-linejoin="round"/>
<path d="M9.74995 17.3333C8.84046 16.6512 8.16864 15.7002 7.82967 14.6151C7.49069 13.5299 7.50174 12.3656 7.86125 11.2871C8.22076 10.2086 8.9105 9.27049 9.83277 8.60575C10.755 7.94102 11.8631 7.58331 12.9999 7.58331C14.1368 7.58331 15.2449 7.94102 16.1671 8.60575C17.0894 9.27049 17.7791 10.2086 18.1386 11.2871C18.4982 12.3656 18.5092 13.5299 18.1702 14.6151C17.8313 15.7002 17.1594 16.6512 16.2499 17.3333C15.827 17.752 15.5085 18.2644 15.3203 18.829C15.1321 19.3936 15.0795 19.9946 15.1666 20.5833C15.1666 21.158 14.9383 21.7091 14.532 22.1154C14.1257 22.5217 13.5746 22.75 12.9999 22.75C12.4253 22.75 11.8742 22.5217 11.4679 22.1154C11.0616 21.7091 10.8333 21.158 10.8333 20.5833C10.9204 19.9946 10.8678 19.3936 10.6796 18.829C10.4914 18.2644 10.1729 17.752 9.74995 17.3333" stroke="#219653" stroke-width="2" stroke-linecap="round" stroke-linejoin="round"/>
<path d="M10.5083 18.4167H15.4916" stroke="#219653" stroke-width="2" stroke-linecap="round" stroke-linejoin="round"/>
</svg>
