<svg width="24" height="24" viewBox="0 0 24 24" fill="none" xmlns="http://www.w3.org/2000/svg">
<path d="M16.9998 11H6.99985C5.89528 11 4.99985 11.8954 4.99985 13V19C4.99985 20.1046 5.89528 21 6.99985 21H16.9998C18.1044 21 18.9998 20.1046 18.9998 19V13C18.9998 11.8954 18.1044 11 16.9998 11Z" stroke="#ABABAB" stroke-width="1.5" stroke-linecap="round" stroke-linejoin="round"/>
<path d="M11.9998 17C12.5521 17 12.9998 16.5523 12.9998 16C12.9998 15.4477 12.5521 15 11.9998 15C11.4476 15 10.9998 15.4477 10.9998 16C10.9998 16.5523 11.4476 17 11.9998 17Z" stroke="#ABABAB" stroke-width="1.5" stroke-linecap="round" stroke-linejoin="round"/>
<path d="M7.99985 11V7C7.99985 5.93913 8.42127 4.92172 9.17142 4.17157C9.92157 3.42143 10.939 3 11.9998 3C13.0607 3 14.0781 3.42143 14.8283 4.17157C15.5784 4.92172 15.9998 5.93913 15.9998 7V11" stroke="#ABABAB" stroke-width="1.5" stroke-linecap="round" stroke-linejoin="round"/>
</svg>
