<svg width="54" height="57" viewBox="0 0 54 57" fill="none" xmlns="http://www.w3.org/2000/svg">
<g filter="url(#filter0_d)">
<path d="M35.014 26.5974L29.0031 32.6083C28.4719 33.139 27.7516 33.4371 27.0007 33.4371C26.2497 33.4371 25.5295 33.139 24.9982 32.6083L18.9859 26.5974C17.4009 25.0124 16.3216 22.9929 15.8844 20.7945C15.4471 18.5961 15.6716 16.3173 16.5294 14.2465C17.3872 12.1756 18.8398 10.4056 20.7036 9.16034C22.5673 7.91504 24.7585 7.25037 27 7.25037C29.2415 7.25037 31.4326 7.91504 33.2964 9.16034C35.1601 10.4056 36.6127 12.1756 37.4705 14.2465C38.3284 16.3173 38.5528 18.5961 38.1156 20.7945C37.6783 22.9929 36.599 25.0124 35.014 26.5974Z" fill="#2F80ED"/>
<path d="M27 22.8333C29.3472 22.8333 31.25 20.9305 31.25 18.5833C31.25 16.236 29.3472 14.3333 27 14.3333C24.6528 14.3333 22.75 16.236 22.75 18.5833C22.75 20.9305 24.6528 22.8333 27 22.8333Z" stroke="#F2F2F2" stroke-width="2.75" stroke-linecap="round" stroke-linejoin="round"/>
</g>
<defs>
<filter id="filter0_d" x="-5" y="-4" width="64" height="64" filterUnits="userSpaceOnUse" color-interpolation-filters="sRGB">
<feFlood flood-opacity="0" result="BackgroundImageFix"/>
<feColorMatrix in="SourceAlpha" type="matrix" values="0 0 0 0 0 0 0 0 0 0 0 0 0 0 0 0 0 0 127 0"/>
<feOffset dy="8"/>
<feGaussianBlur stdDeviation="7.5"/>
<feColorMatrix type="matrix" values="0 0 0 0 0 0 0 0 0 0 0 0 0 0 0 0 0 0 0.4 0"/>
<feBlend mode="normal" in2="BackgroundImageFix" result="effect1_dropShadow"/>
<feBlend mode="normal" in="SourceGraphic" in2="effect1_dropShadow" result="shape"/>
</filter>
</defs>
</svg>
