<svg width="50" height="54" viewBox="0 0 50 54" fill="none" xmlns="http://www.w3.org/2000/svg">
<g filter="url(#filter0_d)">
<path d="M32.0713 24.8213L26.7675 30.125C26.2987 30.5933 25.6632 30.8563 25.0006 30.8563C24.338 30.8563 23.7025 30.5933 23.2338 30.125L17.9288 24.8213C16.5303 23.4227 15.5779 21.6409 15.1921 19.7011C14.8063 17.7613 15.0044 15.7506 15.7613 13.9234C16.5181 12.0962 17.7999 10.5344 19.4444 9.43563C21.0888 8.33684 23.0222 7.75037 25 7.75037C26.9778 7.75037 28.9112 8.33684 30.5557 9.43563C32.2001 10.5344 33.4819 12.0962 34.2388 13.9234C34.9956 15.7506 35.1937 17.7613 34.8079 19.7011C34.4221 21.6409 33.4697 23.4227 32.0713 24.8213Z" fill="#F2C94C"/>
<path d="M25 21.5C27.0711 21.5 28.75 19.8211 28.75 17.75C28.75 15.6789 27.0711 14 25 14C22.9289 14 21.25 15.6789 21.25 17.75C21.25 19.8211 22.9289 21.5 25 21.5Z" stroke="white" stroke-width="2.75" stroke-linecap="round" stroke-linejoin="round"/>
</g>
<defs>
<filter id="filter0_d" x="-5" y="-3" width="60" height="60" filterUnits="userSpaceOnUse" color-interpolation-filters="sRGB">
<feFlood flood-opacity="0" result="BackgroundImageFix"/>
<feColorMatrix in="SourceAlpha" type="matrix" values="0 0 0 0 0 0 0 0 0 0 0 0 0 0 0 0 0 0 127 0"/>
<feOffset dy="8"/>
<feGaussianBlur stdDeviation="7.5"/>
<feColorMatrix type="matrix" values="0 0 0 0 0 0 0 0 0 0 0 0 0 0 0 0 0 0 0.4 0"/>
<feBlend mode="normal" in2="BackgroundImageFix" result="effect1_dropShadow"/>
<feBlend mode="normal" in="SourceGraphic" in2="effect1_dropShadow" result="shape"/>
</filter>
</defs>
</svg>
