<svg width="26" height="26" viewBox="0 0 26 26" fill="none" xmlns="http://www.w3.org/2000/svg">
<path d="M9.75002 5.41669H7.58335C7.00872 5.41669 6.45762 5.64496 6.05129 6.05129C5.64496 6.45762 5.41669 7.00872 5.41669 7.58335V20.5834C5.41669 21.158 5.64496 21.7091 6.05129 22.1154C6.45762 22.5217 7.00872 22.75 7.58335 22.75H18.4167C18.9913 22.75 19.5424 22.5217 19.9488 22.1154C20.3551 21.7091 20.5834 21.158 20.5834 20.5834V7.58335C20.5834 7.00872 20.3551 6.45762 19.9488 6.05129C19.5424 5.64496 18.9913 5.41669 18.4167 5.41669H16.25" stroke="#9B51E0" stroke-width="2" stroke-linecap="round" stroke-linejoin="round"/>
<path d="M14.0833 3.25H11.9167C10.72 3.25 9.75 4.22005 9.75 5.41667C9.75 6.61328 10.72 7.58333 11.9167 7.58333H14.0833C15.28 7.58333 16.25 6.61328 16.25 5.41667C16.25 4.22005 15.28 3.25 14.0833 3.25Z" stroke="#9B51E0" stroke-width="2" stroke-linecap="round" stroke-linejoin="round"/>
<path d="M15.1666 11.9167H12.4583C12.0273 11.9167 11.614 12.0879 11.3093 12.3926C11.0045 12.6974 10.8333 13.1107 10.8333 13.5417C10.8333 13.9727 11.0045 14.386 11.3093 14.6907C11.614 14.9955 12.0273 15.1667 12.4583 15.1667H13.5416C13.9726 15.1667 14.3859 15.3379 14.6907 15.6426C14.9954 15.9474 15.1666 16.3607 15.1666 16.7917C15.1666 17.2227 14.9954 17.636 14.6907 17.9407C14.3859 18.2455 13.9726 18.4167 13.5416 18.4167H10.8333" stroke="#9B51E0" stroke-width="2" stroke-linecap="round" stroke-linejoin="round"/>
<path d="M13 10.8333V11.9166M13 18.4166V19.5V18.4166Z" stroke="#9B51E0" stroke-width="2" stroke-linecap="round" stroke-linejoin="round"/>
</svg>
